<?xml version="1.0" encoding="UTF-8" standalone="no"?>
<svg
   xmlns:dc="http://purl.org/dc/elements/1.1/"
   xmlns:cc="http://creativecommons.org/ns#"
   xmlns:rdf="http://www.w3.org/1999/02/22-rdf-syntax-ns#"
   xmlns:svg="http://www.w3.org/2000/svg"
   xmlns="http://www.w3.org/2000/svg"
   xmlns:sodipodi="http://sodipodi.sourceforge.net/DTD/sodipodi-0.dtd"
   xmlns:inkscape="http://www.inkscape.org/namespaces/inkscape"
   version="1.2"
   viewport-fill="#0072c6"
   height="35"
   width="35"
   id="svg4443">
  <metadata
     id="metadata4818">
    <rdf:RDF>
      <cc:Work
         rdf:about="">
        <dc:format>image/svg+xml</dc:format>
        <dc:type
           rdf:resource="http://purl.org/dc/dcmitype/StillImage" />
      </cc:Work>
    </rdf:RDF>
  </metadata>
  <rect
     width="100%"
     height="100%"
     fill="#0072c6"/>
  <g
     id="use4732"
     transform="translate(1.6767797,1.3194458)">
    <path
       style="fill:#ffffff"
       inkscape:connector-curvature="0"
       id="path4830"
       d="m 19,17.4 c -0.8,0 -1.5,0.5 -1.9,1.2 l -11.8,0 0,0 c -2,0 -3.6,-1.6 -3.6,-3.6 0,-2 1.6,-3.6 3.6,-3.6 l 0,0 0,0 0,0 1.7331456,0 C 7.3786288,8.9693052 9.7283505,7.3368107 11.7,7.3 c 1.6,0 3,0.8 3.9,2 0.5,-0.2 1,-0.4 1.6,-0.5 C 16.1,7 14,5.7 11.7,5.7 9,5.7 6.7,7.4 5.7,9.8 l 0,0 0,0 0,0 -0.4,0 C 2.4,9.7 0,12.1 0,15 c 0,2.9 2.4,5.3 5.3,5.3 l 11.9,0 c 0.3,0.7 1,1.2 1.9,1.2 1.1,0 2,-0.9 2,-2 0,-1.2 -0.9,-2.1 -2.1,-2.1 z"
       sodipodi:nodetypes="scccsccccccccscccccsscsss" />
    <path
       style="fill:#ffffff"
       inkscape:connector-curvature="0"
       id="path4832"
       d="M 25.6,13.4 C 24.4,11 21.9,9.3 19,9.3 c -3.5,0 -6.4,2.4 -7.1,5.7 -1.7,0.2 -3.2,1.1 -4.1,2.4 h 8.7 c 0.6,-0.7 1.5,-1.2 2.5,-1.2 1.8,0 3.2,1.5 3.2,3.2 0,1.8 -1.5,3.2 -3.2,3.2 -1,0 -1.9,-0.5 -2.5,-1.2 H 6.9 c 0.4,2.8 2.8,4.9 5.6,4.9 0,0 0,0 0,0 v 0 h 13 v 0 c 0,0 0,0 0,0 3.6,0 6.5,-2.9 6.5,-6.5 0,-3.5 -2.9,-6.4 -6.4,-6.4 z" />
  </g>
</svg>
